<svg xmlns="http://www.w3.org/2000/svg" viewBox="0 0 512 512">
  <path d="M446.8 166.899c-4.799-7.5-14.7-9-21.899-3.9L376.3 199.6c-6 4.499-7.8 12.9-3.9 19.499 12.299 21 18.6 43.5 18.6 66.901 0 74.399-60.601 135-135 135s-135-60.601-135-135c0-69.3 52.5-126.601 120-134.101V196c0 9 7.2 14.7 15 15 2.999 0 6.301-.901 9-3.001l120-89.998c8.101-6 8.101-18.001 0-24.001L265 3c-2.699-2.098-6-2.999-9-2.999-7.8 0-15 6.301-15 15v46.601C123.999 69.101 31 166.899 31 286c0 124.2 100.8 226 225 226s225-101.8 225-226c0-42.001-12.001-83.101-34.2-119.101z" fill="#17ace8"/>
  <g fill="#1689fc"><path d="M265 207.999c-2.699 2.1-6 3.001-9 3.001V0c2.999 0 6.301.901 9 2.999l120 91c8.101 6 8.101 18.001 0 24.001l-120 89.999zM481 286c0 124.2-100.8 226-225 226v-91c74.399 0 135-60.601 135-135 0-23.401-6.301-45.901-18.6-66.901-3.9-6.599-2.1-15 3.9-19.499l48.6-36.601c7.2-5.099 17.1-3.6 21.899 3.9 22.2 36 34.201 77.1 34.201 119.101z"/>
  </g>
</svg>
