<svg xmlns="http://www.w3.org/2000/svg" width="512" height="512">
  <g xmlns="http://www.w3.org/2000/svg">
    <path d="M424.754 277.841V85.946c0-25.195-20.496-45.703-45.703-45.703-351.7.332-334.082-.806-342.546.93C15.698 45.442 0 63.895 0 85.946V338.872c0 25.201 20.503 45.703 45.704 45.703H318.02c5.022 48.942 46.489 87.246 96.734 87.246 53.622 0 97.246-43.624 97.246-97.246 0-50.245-38.304-91.712-87.246-96.734zM382.96 60.54c12.324 1.889 21.794 12.563 21.794 25.407v27.827H20V85.947c0-12.844 9.47-23.519 21.795-25.407 3.241-.497 338.519-.406 341.165 0zM20 338.872v-20.763l38.642-30.597c4.329-3.429 5.061-9.718 1.632-14.048-3.428-4.328-9.718-5.061-14.048-1.632L20 292.599V133.774h384.754v110.901l-12.134-7.728c-13.771-8.77-31.241-8.288-44.509 1.224l-45.195 32.407c-9.97 7.149-23.545 6.695-33.016-1.102l-70.869-58.349c-21.627-17.806-53.268-18.107-75.233-.717l-17.268 13.674c-4.33 3.429-5.061 9.718-1.632 14.048 3.429 4.329 9.716 5.06 14.048 1.632l17.268-13.674c14.627-11.583 35.702-11.381 50.105.478l70.868 58.348c16.46 13.551 40.056 14.338 57.383 1.916l45.195-32.407c6.591-4.727 15.271-4.964 22.111-.608l22.877 14.57v9.447c-46.521 4.728-82.197 41.849-86.736 86.741H45.704c-14.173 0-25.704-11.53-25.704-25.703zm394.754 112.949c-42.593 0-77.245-34.652-77.245-77.246 0-42.089 34.137-77.245 77.245-77.245 42.594 0 77.246 34.652 77.246 77.245 0 42.594-34.652 77.246-77.246 77.246z" fill="#6a9bdc" data-original="#000000"/>
    <path d="M442.943 368.193H424V349.25c0-5.522-4.478-10-10-10s-10 4.478-10 10v18.943h-18.943c-5.522 0-10 4.478-10 10s4.478 10 10 10H404v18.943c0 5.522 4.478 10 10 10s10-4.478 10-10v-18.943h18.943c5.522 0 10-4.478 10-10s-4.477-10-10-10zM337 97.009h31c5.522 0 10-4.478 10-10s-4.478-10-10-10h-31c-5.522 0-10 4.478-10 10s4.478 10 10 10zM82.315 246.032h-.024c-5.522 0-9.987 4.478-9.987 10s4.489 10 10.012 10 10-4.478 10-10-4.478-10-10.001-10zM296.359 234.398c22.689 0 41.149-18.459 41.149-41.148s-18.46-41.149-41.149-41.149-41.149 18.46-41.149 41.149 18.46 41.148 41.149 41.148zm0-62.297c11.662 0 21.149 9.487 21.149 21.149 0 11.661-9.487 21.148-21.149 21.148s-21.149-9.487-21.149-21.148c0-11.662 9.487-21.149 21.149-21.149z" fill="#6a9bdc" data-original="#000000"/>
  </g>
</svg>
